<svg xmlns="http://www.w3.org/2000/svg" width="64" height="64" viewBox="0 0 64 64" version="1.1" id="svg1">
  <defs id="defs1"/>
  <g id="layer1" transform="translate(3.9741268)">
    <g id="g17">
      <path style="fill:none;fill-opacity:1;fill-rule:nonzero;stroke:#3a86ff;stroke-width:3.7109;stroke-linecap:butt;stroke-linejoin:round;stroke-dasharray:none;stroke-opacity:0.858824;paint-order:normal" d="M -1.5366469,17.608652 28.234702,2.5513094 57.685925,17.471767 57.525866,61.685599 -1.5366469,61.822485 Z" id="path134"/>
      <g id="g1" transform="matrix(0.11166143,0,0,0.10838405,-0.30855516,4.3718246)">
        <path d="m 252.05663,162.18897 c -0.57783,-1.5e-4 -1.15567,0.008 -1.7335,0.009 -3.60411,0.0474 -7.28153,0.24124 -10.91159,0.5961 -1.50915,0.14788 -3.00052,0.31648 -4.46722,0.51332 -3.78772,0.50025 -7.55032,1.17697 -11.2736,2.01309 -1.10614,0.25609 -2.32809,0.54104 -3.47168,0.83767 -2.22241,0.56731 -4.44622,1.19896 -6.5929,1.87662 -2.53384,0.7931 -5.11209,1.6978 -7.54088,2.63264 -0.97863,0.3805 -1.86653,0.73232 -2.83695,1.13182 -0.86571,0.3622 -1.91562,0.81078 -2.77547,1.18659 -10.56464,4.66979 -20.43944,10.77889 -29.26081,18.07182 -0.77988,0.64571 -1.64706,1.37967 -2.44593,2.0757 -2.36608,2.06038 -4.62081,4.23467 -6.81917,6.46087 6.0968,-1.48559 12.1833,-3.01135 18.27145,-4.52944 6.85689,-1.73834 13.75154,-3.3316 20.65824,-4.87387 l 4.15857,-0.945 c 0.46182,0.73289 0.84214,1.51705 1.08256,2.34409 0.50113,1.89543 0.96359,3.81599 1.81591,5.60085 1.83076,3.54774 3.71086,7.0773 5.33628,10.71849 0.98676,2.64094 1.58718,5.39657 2.37748,8.09482 1.37354,4.64848 3.12713,9.18766 4.40688,13.86338 0.46421,1.66554 0.8944,3.44328 1.22181,5.19149 0.0555,0.31042 0.13348,0.77122 0.17518,0.98862 0.15658,0.99449 0.29983,2.05553 0.37711,3.00845 0.37416,4.21914 -0.10232,8.65926 -2.30552,12.39608 -3.52514,6.01931 -7.57353,11.69037 -12.07889,17.05744 -1.4862,1.7644 -3.07754,3.53788 -4.65634,5.16242 -3.19964,3.33414 -6.75063,6.35813 -10.63543,8.93246 -0.52691,0.35351 -1.14682,0.74855 -1.63024,1.05799 -2.95848,1.82844 -5.96592,3.59734 -8.72555,5.70372 -2.22473,1.55708 -3.98072,3.62167 -6.06264,5.33576 -3.52122,2.71081 -7.70626,4.46274 -11.30494,7.06815 -4.60052,3.4073 -8.36293,7.70291 -12.55808,11.53717 -0.92438,0.80667 -2.10753,1.63957 -3.1108,2.4839 -2.65507,2.10664 -4.1553,5.15844 -6.01508,7.87224 -1.57966,2.26094 -2.94119,4.68224 -4.77816,6.76729 -0.1498,0.28529 -0.40485,0.2346 -0.68922,0.27178 -0.53332,-0.71168 -0.83311,-1.55025 -1.2079,-2.34301 -1.06244,-2.12257 -2.1398,-4.24228 -3.16184,-6.3848 2.36665,7.18461 5.33703,14.18457 9.02955,20.82975 0.54443,0.96806 1.14964,2.03408 1.74395,3.02632 3.54979,5.98257 7.67878,11.744 12.25872,17.09101 0.75713,0.89037 1.61726,1.85477 2.3914,2.71766 3.92489,4.31976 8.23044,8.44255 12.78202,12.21041 1.23215,1.0146 2.57322,2.08983 3.88359,3.08673 5.16859,3.94929 10.68814,7.45898 16.43814,10.57311 2.88473,-3.03517 6.48725,-5.40296 10.34189,-7.15088 1.01634,-0.46487 1.95285,-0.84381 2.99245,-1.24477 2.16047,-0.81807 4.44365,-1.51429 6.64511,-2.0757 4.75184,-1.19813 9.62085,-1.93963 14.51204,-2.34521 2.4506,-0.20392 4.80064,-0.31816 7.245,-0.36461 0.37249,-0.003 0.74492,-0.009 1.11739,-0.014 0.96016,0.59233 1.90299,1.21199 2.88106,1.77709 0.79005,0.58316 1.82354,0.52175 2.76271,0.50887 0.75546,-0.0709 1.63259,0.0452 2.25798,-0.44289 1.3275,-0.0537 2.66463,-0.0722 3.99611,-0.0973 2.47025,-0.0167 4.9479,-0.1177 7.41326,0.0661 1.39412,0.4011 2.63231,1.21407 4.07386,1.48743 1.52693,0.30403 3.08575,0.68453 4.37203,1.57353 0.71759,0.64948 1.64512,1.01385 2.60028,1.19669 3.20259,0.75882 6.51031,0.0627 9.64106,-0.67887 2.33551,-0.52765 4.69295,-1.1794 7.11622,-1.06245 0.78299,0.052 1.55843,-0.0521 2.33569,-0.10295 0.60416,0.2421 1.14304,0.63811 1.66157,1.02334 1.2026,0.85582 2.01894,2.09192 2.66756,3.36741 1.78344,3.49646 2.01129,7.48457 1.94585,11.31461 -0.0134,0.90505 -0.055,1.83906 -0.0918,2.76798 4.54168,-1.41282 9.01456,-3.03129 13.35522,-4.94324 3.2152,-1.41302 6.49842,-3.02845 9.57491,-4.71059 11.39213,-6.20923 21.83691,-14.23073 30.70768,-23.55857 12.75669,-13.37568 22.35603,-29.52645 27.87656,-46.89798 0.57315,-1.79697 1.09842,-3.60702 1.58964,-5.42637 0.16232,-0.62942 0.36847,-1.39848 0.53608,-2.08575 1.89093,-7.62864 3.01601,-15.43176 3.3823,-23.26668 0.0252,-0.68512 0.0645,-1.51547 0.081,-2.25688 0.10692,-3.74659 0.0329,-7.49657 -0.20421,-11.23744 -0.0653,-0.93701 -0.14305,-1.99951 -0.23208,-2.98269 -0.14173,-1.5558 -0.30535,-3.06127 -0.50703,-4.62894 -0.19067,-1.46615 -0.39752,-2.87339 -0.64397,-4.34938 -0.24916,-1.49307 -0.51124,-2.91092 -0.81918,-4.40639 -1.94266,-9.46248 -5.05186,-18.7006 -9.23611,-27.46285 -1.00324,-2.08845 -2.10785,-4.25616 -3.25468,-6.3244 -2.80252,-5.07208 -6.03442,-10.05467 -9.58419,-14.72791 -0.92419,-1.21928 -1.93613,-2.40413 -2.91588,-3.60115 0.0364,0.14159 0.0659,0.31974 0.11716,0.43503 0.4536,1.02019 0.95857,2.01714 1.53624,2.96371 1.57595,2.58229 3.98211,5.15209 5.52542,7.99191 3.7495,6.89942 3.61555,14.92503 3.61555,22.28924 0,1.18777 0.25727,2.51414 -0.009,3.90758 -0.44033,2.29173 -1.36281,4.39867 -1.98184,6.50448 -1.60067,5.44526 -3.40617,10.81516 -4.71437,16.27908 -0.62883,2.6266 -0.52278,5.49295 -1.17887,8.3386 -0.0237,0.10447 -0.0322,0.11781 -0.065,0.22588 -0.0323,0.10807 -0.0777,0.25711 -0.1347,0.44176 -0.11362,0.36944 -0.27225,0.88241 -0.46413,1.49641 -0.38374,1.22802 -0.89824,2.85736 -1.43531,4.53389 -0.53705,1.67654 -1.09659,3.39971 -1.57336,4.81686 -0.47682,1.4171 -0.85372,2.4959 -1.08839,3.01291 -4.16555,9.1771 -12.4812,20.27287 -23.6913,22.36414 -2.42695,0.45277 -4.86004,0.32026 -7.18581,0.3903 -5.84281,0.176 -4.36162,0.30084 -8.83579,-0.77724 -2.5949,-0.62528 -4.25616,-2.04237 -5.33629,-3.82597 -1.0801,-1.78364 -1.63209,-3.91088 -2.22084,-6.10972 -0.56432,-2.10777 -1.32016,-4.25115 -1.59079,-6.53353 -0.28058,-2.36552 0.051,-4.67522 -0.002,-6.88248 -0.0744,-3.0145 -0.31105,-6.04523 -0.39452,-9.10134 -0.0506,-1.85226 0.25295,-3.61499 0.007,-5.23511 -0.51857,-3.41554 -1.41859,-6.7931 -2.34614,-10.17051 -0.11213,-0.4085 -0.57695,-1.75979 -1.10929,-3.03976 -0.26615,-0.63999 -0.55224,-1.27101 -0.81802,-1.77263 -0.26574,-0.50161 -0.55888,-0.88719 -0.62077,-0.93829 -0.10021,-0.0829 -0.29847,-0.16546 -0.58246,-0.26284 -0.284,-0.0973 -0.65465,-0.20991 -0.99785,-0.50101 -3.28605,-2.78721 -9.31738,-7.78276 -11.94311,-12.30216 -0.95628,-1.64583 -1.35284,-3.4359 -2.00389,-5.00471 -0.33508,-0.80738 -0.94447,-1.65607 -1.2102,-2.74448 -0.53179,-2.17842 -0.41076,-4.88283 -0.41076,-6.97082 0,-10.716 1.14598,-19.64008 7.98646,-29.18291 2.15402,-3.00499 5.73004,-4.50356 8.38906,-6.5783 l 0.0556,-0.0437 0.0639,-0.0301 c 1.06622,-0.51385 2.12992,-0.97278 3.12237,-1.50423 -0.11083,0.0595 -0.091,0.0765 -0.0256,-0.0129 0.0656,-0.09 0.20302,-0.30872 0.53026,-0.4138 0.39736,-0.12758 0.82418,-0.2009 1.27402,-0.23262 1.34952,-0.0951 2.90367,0.18702 4.4707,0.52116 2.08934,0.44554 4.19853,1.03262 5.56254,1.20228 2.82971,0.3519 5.73329,0.42634 8.65015,0.7571 1.64605,0.18667 3.19961,0.58312 4.72362,0.7594 2.63203,0.30442 5.43723,-0.0299 8.28231,0.38136 1.45831,0.21084 7.2411,1.74871 8.78939,2.30833 0.95196,0.34408 1.66433,0.88702 2.36008,1.13849 -0.11352,-0.0407 -0.10001,-0.0101 0.0451,-0.0381 0.14538,-0.0268 0.44695,-0.10896 0.80525,0.0638 0.48183,0.23219 0.78395,0.58875 1.03153,0.88798 0.24756,0.29924 0.44997,0.55037 0.64168,0.68893 0.67991,0.49153 1.74917,0.93458 2.81609,1.45389 0.11139,0.0541 0.21566,0.12706 0.32714,0.18341 -0.48611,-0.54726 -0.96025,-1.09309 -1.45035,-1.62165 -10.50357,-11.40879 -23.25014,-20.89786 -37.38646,-27.75921 -0.88877,-0.42958 -1.89741,-0.90681 -2.84163,-1.33645 -1.78181,-0.81098 -3.50393,-1.54439 -5.32235,-2.27479 -1.55542,-0.62529 -3.24086,-1.26013 -4.86865,-1.83523 -1.79537,-0.63694 -3.53659,-1.20384 -5.36534,-1.76369 -1.04071,-0.31436 -2.20112,-0.65414 -3.29644,-0.95286 -1.76329,-0.48407 -3.53549,-0.92747 -5.28408,-1.32973 -0.72898,-0.16613 -1.54274,-0.34443 -2.27653,-0.49769 -3.44246,-0.72118 -6.91803,-1.29633 -10.41147,-1.73347 -0.98185,-0.12058 -2.09521,-0.24409 -3.12939,-0.35008 -3.18314,-0.31517 -6.37858,-0.50902 -9.57723,-0.59272 -0.97226,-0.0195 -2.07561,-0.0378 -3.09801,-0.0391 z m 13.49678,96.62653 c 0.14568,-0.0262 0.27649,-0.0257 0.34924,0.0792 2.94744,4.26134 -0.8986,10.50222 -1.57453,14.41139 -0.54341,3.14251 -0.5846,5.92558 -1.57338,9.10245 -1.50913,4.8486 -2.2324,3.36648 -3.14796,9.10246 -0.23083,1.44627 0.19237,6.67541 0,8.34419 -0.30614,2.65576 -1.13369,3.70201 -2.36121,6.06832 -0.80811,6.23108 0.69598,18.02364 -1.57339,24.27322 -1.01063,2.78313 -3.35434,4.94857 -4.72249,7.58594 -2.65275,5.11377 -0.22761,4.91067 -4.7213,9.86073 -1.25761,1.38529 -3.69739,0.93552 -5.50919,1.51763 -7.79471,2.50432 -13.26709,2.27478 -21.24882,2.27478 -7.35953,0 -15.50497,0.88158 -22.82222,0 -0.82315,-0.0991 -1.57425,-0.50543 -2.36124,-0.75826 -0.26234,-0.25285 -0.43135,-0.6555 -0.78669,-0.75825 -2.31652,-0.66987 -4.71769,-1.02922 -7.08257,-1.51763 -1.67366,-0.34572 -6.54461,-0.99692 -7.87041,-2.2748 -0.55646,-0.53637 0,-1.51735 0,-2.27588 0,-4.96678 0.86991,-7.62049 6.29588,-9.86186 4.73762,-1.957 10.12463,-2.60558 14.16628,-6.0683 0.33546,-0.28742 5.0805,-12.69169 5.50801,-13.65313 1.01773,-2.28889 2.22047,-4.50227 3.14792,-6.82657 0.38828,-0.97299 0.11225,-2.22006 0.78786,-3.03414 0.51823,-0.62435 1.84188,-0.13502 2.36007,-0.75939 1.68721,-2.03276 2.31529,-4.74399 3.93579,-6.82653 1.57399,-2.02278 4.55305,-2.66089 6.29585,-4.55068 7.23652,-7.84685 -2.20709,-2.11421 10.23051,-7.77495 2.36095,-0.69539 4.7022,-1.45592 7.08256,-2.0869 0.25291,-0.067 0.60118,0.1788 0.78668,0 0.85633,-0.82535 -1.39565,-0.99038 0.78786,-1.51652 0.76348,-0.18396 1.73046,0.45514 2.36007,0 0.66362,-0.47975 0.41686,-1.56074 0.78785,-2.27588 1.18092,-2.2765 3.19432,-5.37712 4.72132,-7.58483 2.41066,-3.48529 0.89962,0.65055 4.7225,-3.03416 3.90859,-3.76732 -0.17224,-1.583 3.9346,-4.55177 3.53042,-2.55214 3.9776,-4.55068 8.65711,-4.55068 0.13117,0 0.29166,-0.0532 0.43744,-0.0792 z" style="fill:#2d96b2;fill-opacity:1;stroke:#2d4e6f;stroke-width:3.71843;stroke-dasharray:none;stroke-opacity:0.858824" id="path23"/>
        <path d="m 328.07874,187.45591 c -0.37293,0.31067 -0.738,0.63079 -1.13245,0.91595 -3.9249,2.83727 -8.17206,5.2604 -12.23321,7.91585 0.61526,0.0521 1.21284,0.0899 1.82983,0.15994 1.64609,0.18665 3.19964,0.58311 4.72364,0.75938 1.31563,0.15214 2.6744,0.14507 4.05995,0.15104 1.38591,0.005 2.79983,0.0247 4.22238,0.23039 1.4583,0.21085 7.24107,1.74871 8.78936,2.30832 0.95197,0.34408 1.66434,0.88705 2.36007,1.13851 -0.11038,-0.0397 -0.0904,-0.014 0.0441,-0.0369 0,0 9.2e-4,-8.8e-4 9.2e-4,-8.8e-4 0.0726,-0.0129 0.18375,-0.0401 0.32141,-0.0425 0.13829,-0.002 0.3047,0.0199 0.48385,0.10622 0.24062,0.11604 0.43565,0.26403 0.6022,0.41937 0.16672,0.15562 0.30554,0.31899 0.42932,0.46863 0.24758,0.29923 0.44997,0.55034 0.64165,0.68889 0.67995,0.49154 1.7492,0.9346 2.81609,1.4539 0.11038,0.0536 0.21329,0.12653 0.32373,0.1823 -0.48541,-0.54642 -0.95873,-1.09162 -1.44809,-1.6194 -1.96197,-2.13107 -4.02628,-4.17199 -6.13921,-6.16449 -2.12879,-2.00746 -4.30713,-3.96598 -6.57781,-5.82338 -1.34617,-1.10112 -2.7251,-2.16514 -4.11797,-3.21088 z" style="fill:#2d96b2;stroke:#2d4e6f;stroke-width:3.71843;stroke-dasharray:none;stroke-opacity:0.858824" id="path62"/>
        <path id="path17" style="fill:#246c7c;stroke:#2d4e6f;stroke-width:3.71843;stroke-dasharray:none;stroke-opacity:0.858824" d="m 250.32345,162.19873 c -3.60407,0.0474 -7.28167,0.24109 -10.91172,0.59596 -1.50915,0.14789 -3.00071,0.31718 -4.46741,0.51402 -3.78772,0.50026 -7.54996,1.17641 -11.27325,2.01253 -1.10617,0.25609 -2.32885,0.54109 -3.4724,0.83771 -2.22243,0.56729 -4.44624,1.19901 -6.59293,1.87666 -2.53384,0.79309 -5.11136,1.69772 -7.54014,2.63259 -0.97862,0.38046 -1.86652,0.73231 -2.83697,1.13179 -0.86568,0.36217 -1.9156,0.81078 -2.77546,1.1866 -10.56464,4.6698 -20.43943,10.77886 -29.26078,18.07181 -0.7799,0.64571 -1.64755,1.37955 -2.44643,2.07564 -3.30648,2.87926 -6.45502,5.92681 -9.42939,9.1249 -0.39768,0.43239 -0.87216,0.94075 -1.26632,1.38474 -4.6906,5.19478 -8.97365,10.84142 -12.70518,16.76318 -1.22133,1.93376 -2.46215,4.03619 -3.56618,6.03177 -6.29297,11.37489 -10.69619,23.71429 -13.01571,36.40943 -0.15459,0.87699 -0.33086,1.8815 -0.47678,2.8097 -0.2352,1.49322 -0.43427,2.92775 -0.61706,4.44364 -0.19687,1.6334 -0.3502,3.21162 -0.48428,4.86509 -0.45152,5.73725 -0.49279,11.60486 -0.12074,17.39325 0.0653,0.93703 0.14323,1.99928 0.23214,2.98245 0.14174,1.55581 0.30534,3.06144 0.50702,4.62915 0.1888,1.44794 0.39152,2.83568 0.63472,4.29306 0.24863,1.495 0.50954,2.9108 0.81848,4.40614 2.43258,11.89989 6.72001,23.4434 12.66082,34.13466 0.54441,0.96805 1.14933,2.03457 1.74368,3.0268 3.54977,5.98258 7.67863,11.74391 12.25857,17.09093 0.75713,0.89037 1.61771,1.85437 2.39183,2.71725 3.92487,4.31977 8.22971,8.4424 12.78129,12.21028 1.23215,1.01461 2.57314,2.09008 3.8835,3.08697 7.82643,5.98015 16.39919,11.05195 25.47667,15.06665 0.85988,0.37585 1.90979,0.82441 2.77544,1.18658 0.9705,0.3995 1.85833,0.75135 2.837,1.13183 0.9684,0.37092 2.0574,0.77799 3.08112,1.14082 2.22079,0.79015 4.48627,1.52194 6.71112,2.17787 2.92066,0.85742 5.9194,1.62112 8.8559,2.25681 3.72942,0.81085 7.49911,1.44745 11.29025,1.92206 0.98184,0.12057 2.09518,0.24408 3.12937,0.35005 3.18312,0.31519 6.37857,0.50906 9.57722,0.59275 0.9723,0.0195 2.07556,0.037 3.09803,0.0384 2.66291,0.002 5.25424,-0.0759 7.91103,-0.23188 2.33976,-0.14351 4.78499,-0.35278 7.15442,-0.63153 1.61981,-0.18563 3.35226,-0.42294 4.96456,-0.67676 10.83746,-1.68795 21.43495,-4.79194 31.4195,-9.1899 3.2152,-1.41305 6.49862,-3.02767 9.5751,-4.70981 11.39213,-6.20926 21.83666,-14.23119 30.70743,-23.559 12.75668,-13.37569 22.35582,-29.52607 27.87634,-46.89759 0.57315,-1.79698 1.09868,-3.60775 1.58988,-5.42708 0.16234,-0.62945 0.36856,-1.39866 0.53611,-2.08592 1.89095,-7.62864 3.01602,-15.43163 3.38231,-23.26655 0.0252,-0.68509 0.0645,-1.51471 0.0814,-2.25611 0.1067,-3.7466 0.0327,-7.49734 -0.20433,-11.23823 -0.0652,-0.937 -0.14322,-1.99926 -0.23214,-2.98243 -0.14174,-1.55579 -0.30531,-3.06145 -0.50701,-4.62916 -0.19068,-1.4661 -0.39747,-2.8736 -0.64393,-4.34959 -0.24914,-1.49306 -0.51179,-2.91048 -0.81975,-4.40594 -1.94264,-9.46248 -5.05129,-18.7009 -9.23554,-27.46311 -1.00324,-2.08845 -2.10825,-4.25551 -3.25506,-6.32377 -2.80254,-5.07205 -6.03444,-10.05546 -9.58419,-14.72869 -1.58258,-2.08792 -3.24388,-4.14081 -4.99318,-6.16671 -0.82467,-0.94436 -1.73225,-1.97286 -2.61699,-2.92706 -10.50355,-11.40876 -23.25008,-20.89859 -37.38642,-27.75991 -0.88877,-0.42963 -1.8983,-0.90608 -2.84249,-1.33574 -1.78185,-0.81096 -3.50333,-1.54531 -5.32175,-2.27572 -1.55541,-0.62528 -3.24041,-1.25913 -4.86821,-1.83424 -1.79535,-0.63695 -3.53677,-1.20465 -5.36547,-1.76449 -1.04074,-0.31438 -2.20202,-0.65428 -3.29732,-0.95299 -1.76332,-0.48409 -3.53512,-0.92657 -5.28369,-1.32886 -0.72901,-0.16609 -1.54291,-0.34484 -2.27667,-0.49809 -3.44247,-0.72116 -6.91744,-1.29666 -10.41089,-1.73381 -0.98183,-0.12059 -2.09518,-0.2441 -3.12937,-0.35008 -3.18313,-0.31517 -6.37857,-0.50901 -9.57722,-0.59272 -0.97228,-0.0196 -2.07559,-0.037 -3.098,-0.0383 -0.57784,-1.6e-4 -1.15572,0.005 -1.73357,0.009 z"/>
        <path d="m 370.68815,321.24657 c -4.92273,3.84959 -9.58642,8.02754 -14.76733,11.54834 -2.13262,1.4493 -29.19597,-0.5734 -30.04979,1.07252 -0.33183,0.63966 0.33179,1.50653 0,2.14619 -0.16591,0.31979 -0.94799,-0.31984 -1.11391,0 -1.49321,2.87843 0,6.43669 0,9.65492 0,8.0543 6.13197,11.38313 11.12973,17.16373 0.75104,0.86864 0.0634,2.71185 1.11275,3.21755 0.66364,0.31981 1.50682,-0.17344 2.22664,0 1.45721,0.35113 2.83559,0.86847 4.24211,1.36553 10.44141,-11.12587 18.7013,-24.12418 24.2958,-38.12205 -0.38243,-0.23418 -0.81996,-0.43758 -0.71358,-0.78846 0.78191,-2.57908 2.42472,-4.83899 3.63758,-7.25827 z" style="fill:#52cc00;fill-opacity:1;stroke:#2d4e6f;stroke-width:3.71843;stroke-dasharray:none;stroke-opacity:0.858824" id="path70"/>
        <path d="m 132.88777,321.97575 c 1.02204,2.14251 2.0994,4.26225 3.16184,6.38481 0.37479,0.79277 0.67458,1.63131 1.2079,2.34299 0.28437,-0.037 0.53936,0.0142 0.68922,-0.27177 1.83697,-2.08504 3.1985,-4.50634 4.77816,-6.76728 1.85978,-2.71383 3.36001,-5.7656 6.01508,-7.87226 1.00327,-0.84432 2.18642,-1.67724 3.1108,-2.4839 4.19515,-3.83425 7.95756,-8.12984 12.55808,-11.53716 3.59868,-2.60543 7.78372,-4.35733 11.30494,-7.06814 2.08192,-1.71411 3.83791,-3.7787 6.06264,-5.33578 2.75963,-2.10635 5.76707,-3.87528 8.72555,-5.70371 0.48342,-0.30943 1.10333,-0.70447 1.63024,-1.05797 3.8848,-2.57435 7.43579,-5.59835 10.63543,-8.93248 1.5788,-1.62453 3.17014,-3.39803 4.65634,-5.16242 4.50536,-5.36709 8.55375,-11.03814 12.07889,-17.05746 2.20334,-3.73679 2.67968,-8.17695 2.30552,-12.39607 -0.0774,-0.95291 -0.22048,-2.01396 -0.37711,-3.00841 -0.0417,-0.21742 -0.11941,-0.67824 -0.17518,-0.98868 -0.32741,-1.74819 -0.7576,-3.5259 -1.22181,-5.19149 -1.27975,-4.67572 -3.03334,-9.2149 -4.40688,-13.86338 -0.7903,-2.69824 -1.39072,-5.45385 -2.37748,-8.09479 -1.62542,-3.64121 -3.50552,-7.17076 -5.33628,-10.71849 -0.85232,-1.78485 -1.31478,-3.70543 -1.81591,-5.60086 -0.24042,-0.82705 -3.534,3.51304 -3.99582,2.78017 l -1.24531,-4.17924 c -6.9067,1.54225 -13.80135,3.13548 -20.65824,4.87387 -6.08815,1.51808 -12.17465,3.04382 -18.27145,4.52943 -0.87377,0.88483 -1.76472,1.75436 -2.6107,2.66395 -0.39767,0.4324 -0.87174,0.94057 -1.26591,1.38456 -4.69061,5.19483 -8.97387,10.84158 -12.70545,16.76334 -1.22133,1.93378 -2.46161,4.03581 -3.56563,6.0314 -6.29298,11.3749 -10.69685,23.71468 -13.0164,36.40981 -0.1546,0.87702 -0.33097,1.8812 -0.4769,2.80937 -0.23521,1.49322 -0.43332,2.92744 -0.61613,4.44331 -0.19687,1.63343 -0.35091,3.21147 -0.48501,4.86493 -0.45152,5.73724 -0.49287,11.6057 -0.12074,17.39411 0.0653,0.93701 0.14304,1.99839 0.23206,2.98158 0.14173,1.5558 0.30538,3.0624 0.50704,4.63007 0.1888,1.44794 0.39152,2.83499 0.63471,4.29231 0.24866,1.49501 0.51024,2.91111 0.81917,4.4064 0.92061,4.50349 2.18962,8.9308 3.63065,13.30533 z" style="fill:#57d900;fill-opacity:1;stroke:#2d4e6f;stroke-width:3.71843;stroke-dasharray:none;stroke-opacity:0.858824" id="path26"/>
        <path style="mix-blend-mode:normal;fill:#55d700;fill-opacity:1;stroke:#2d4e6f;stroke-width:3.71843;stroke-dasharray:none;stroke-opacity:0.858824" d="m 293.25001,196.69428 c -2.75444,2.14918 -6.2489,3.6373 -8.26335,6.44758 -6.7523,9.41982 -7.86982,18.15088 -7.86982,28.82451 0,2.10806 -0.10457,4.78724 0.39345,6.82683 0.22882,0.93722 0.80952,1.76095 1.1805,2.6549 0.67849,1.63492 1.07483,3.39411 1.96747,4.93051 2.51443,4.32778 8.5146,9.3459 11.80474,12.13663 0.44036,0.37349 1.12861,0.39058 1.57397,0.75851 0.91009,0.75189 2.49,5.1054 2.75445,6.06834 0.92832,3.38026 1.83566,6.78042 2.36094,10.24027 0.2659,1.75129 -0.0483,3.54046 0,5.30976 0.0828,3.03577 0.31852,6.06657 0.3935,9.10249 0.0563,2.27497 -0.26809,4.56594 0,6.82684 0.26012,2.19363 1.00158,4.30974 1.57399,6.44759 1.17791,4.39945 2.20248,8.30576 7.08282,9.48174 4.49812,1.08388 2.79863,0.935 8.65682,0.75855 2.36347,-0.0712 4.76137,0.0539 7.08288,-0.37928 10.84032,-2.02227 19.10204,-12.9341 23.21603,-21.99764 0.79713,-1.75616 4.6594,-14.14114 4.72192,-14.41224 0.63174,-2.7402 0.52559,-5.60878 1.18044,-8.34394 1.3167,-5.49937 3.12567,-10.87842 4.72192,-16.30858 0.6336,-2.15539 1.54425,-4.24483 1.96745,-6.4476 0.23886,-1.2431 0,-2.52846 0,-3.79269 0,-7.37011 0.1077,-15.28292 -3.54142,-21.99764 -1.4873,-2.73677 -3.88357,-5.30152 -5.50889,-7.96466 -0.59483,-0.97464 -1.11182,-1.99482 -1.57397,-3.03416 -0.32676,-0.73492 -0.32681,-1.61035 -0.78697,-2.27562 -1.141,-1.64963 -3.94303,-2.28149 -5.50888,-3.41342 -0.59359,-0.42909 -0.91033,-1.19726 -1.57397,-1.51707 -0.23464,-0.11307 -0.54137,0.0888 -0.787,0 -0.82384,-0.29778 -1.53709,-0.84005 -2.36096,-1.13781 -1.38954,-0.50225 -7.46317,-2.10305 -8.65682,-2.27563 -2.72706,-0.39428 -5.52541,-0.0625 -8.26332,-0.37927 -1.58433,-0.18325 -3.13715,-0.57883 -4.72192,-0.75853 -2.87763,-0.32631 -5.78314,-0.40116 -8.65681,-0.75854 -2.92657,-0.364 -8.38992,-2.3614 -11.01778,-1.51709 -0.17596,0.0564 -0.23133,0.29245 -0.39349,0.37928 -1.02552,0.54914 -2.09862,1.01138 -3.14792,1.51708 z" id="path14"/>
        <path d="m 289.90259,401.01471 c 0.0367,-0.92892 0.0789,-1.86295 0.0918,-2.76798 0.0652,-3.83005 -0.16233,-7.81814 -1.94586,-11.31462 -0.64862,-1.27548 -1.46497,-2.51159 -2.66757,-3.36743 -0.51851,-0.38518 -1.0574,-0.7812 -1.66155,-1.02332 -0.77726,0.051 -1.55269,0.15482 -2.33571,0.10295 -2.42325,-0.11701 -4.78069,0.53481 -7.1162,1.06244 -3.13074,0.74161 -6.43848,1.4377 -9.64107,0.67886 -0.95516,-0.1828 -1.8827,-0.54721 -2.60026,-1.19666 -1.2863,-0.88901 -2.84511,-1.26953 -4.37204,-1.57354 -1.44157,-0.27337 -2.67975,-1.08634 -4.07387,-1.48744 -2.46538,-0.18367 -4.94299,-0.0826 -7.41326,-0.0661 -1.33148,0.0251 -2.66862,0.0435 -3.99612,0.0973 -0.62539,0.48802 -1.50251,0.37202 -2.25797,0.44287 -0.93918,0.0129 -1.97267,0.0743 -2.76272,-0.50886 -0.97805,-0.56506 -1.92087,-1.18472 -2.88104,-1.77709 -0.37247,0.003 -0.74492,0.009 -1.1174,0.014 -2.44437,0.0464 -4.79439,0.16071 -7.24498,0.36459 -4.89122,0.40562 -9.76023,1.1471 -14.51206,2.34523 -2.20147,0.56141 -4.48463,1.25762 -6.64511,2.07571 -1.0396,0.40093 -1.97611,0.77988 -2.99246,1.24475 -3.85464,1.74793 -7.45715,4.11571 -10.34188,7.15089 2.95682,1.60137 5.95505,3.13025 9.03769,4.49365 0.85991,0.37584 1.90983,0.82438 2.77548,1.18659 0.97046,0.39951 1.85836,0.75134 2.83696,1.13178 0.9684,0.37096 2.05807,0.77792 3.08181,1.14074 2.22079,0.79015 4.4864,1.52156 6.71124,2.17748 2.92067,0.85743 5.91903,1.6212 8.85552,2.2569 3.72943,0.81084 7.49871,1.44786 11.28987,1.92249 0.9818,0.12058 2.09517,0.24407 3.12935,0.35003 3.18312,0.31519 6.37859,0.50904 9.57724,0.59273 0.97225,0.0194 2.07559,0.0368 3.09801,0.0381 2.66291,0.002 5.25423,-0.0756 7.91106,-0.23154 2.33973,-0.14348 4.78504,-0.35313 7.15446,-0.63187 1.61982,-0.18563 3.3527,-0.42281 4.96499,-0.67661 6.12603,-0.95416 12.15849,-2.40949 18.06376,-4.24648 z" style="fill:#e3dbdb;stroke:#2d4e6f;stroke-width:3.71843;stroke-dasharray:none;stroke-opacity:0.858824" id="path27"/>
        <path d="m 349.72671,208.58204 c 0.45363,1.02014 0.95859,2.01711 1.53627,2.96368 1.18195,1.93672 2.83114,3.86652 4.23282,5.90837 0.46724,0.68063 0.90677,1.37358 1.2926,2.08355 1.87475,3.44968 2.77888,7.18076 3.21407,10.97012 0.43519,3.78937 0.40146,7.63699 0.40146,11.31909 0,1.18778 0.2573,2.51414 -0.009,3.90761 -0.22011,1.1455 -0.56073,2.24546 -0.92364,3.32158 -0.36301,1.07642 -0.74869,2.12998 -1.05821,3.1829 -1.6007,5.44527 -3.40618,10.81516 -4.71435,16.27905 -0.62886,2.62662 -0.52279,5.49294 -1.17889,8.33862 -0.0239,0.10447 -0.0323,0.11782 -0.065,0.22592 -0.0322,0.10807 -0.0778,0.25703 -0.13472,0.44173 -0.11351,0.36942 -0.27223,0.8824 -0.4641,1.49639 -0.38374,1.22802 -0.89824,2.85736 -1.43531,4.53391 -0.53707,1.67654 -1.09658,3.39972 -1.57339,4.81683 -0.47678,1.41715 -0.85369,2.49592 -1.08838,3.01291 -4.16553,9.17713 -12.48121,20.27288 -23.69127,22.36415 -1.21313,0.22623 -2.42863,0.30666 -3.63064,0.33889 -1.20195,0.0322 -2.39268,0.0165 -3.55519,0.0514 -2.91917,0.0879 -4.01119,0.16307 -4.9302,0.0816 -0.9193,-0.0816 -1.66851,-0.31985 -3.90558,-0.85891 -0.64829,-0.15621 -1.23924,-0.36211 -1.77645,-0.61064 -0.53716,-0.24854 -1.02257,-0.54034 -1.45968,-0.86784 -0.43707,-0.32757 -0.82739,-0.69159 -1.17541,-1.08483 h -9.5e-4 c -0.34815,-0.39343 -0.65471,-0.81674 -0.92476,-1.26263 -0.27,-0.44592 -0.50655,-0.91225 -0.7194,-1.39686 -0.2128,-0.48461 -0.40103,-0.98716 -0.57434,-1.50201 -0.34661,-1.0296 -0.6327,-2.11141 -0.92709,-3.21083 -0.56434,-2.1078 -1.32016,-4.25116 -1.5908,-6.53354 -0.28053,-2.36552 0.0511,-4.67523 -0.002,-6.8825 -0.0744,-3.01452 -0.31105,-6.04524 -0.39452,-9.10133 -0.0507,-1.85227 0.25297,-3.61501 0.007,-5.23512 -0.25923,-1.7074 -0.61423,-3.40662 -1.01991,-5.0998 -0.4058,-1.69352 -0.86246,-3.382 -1.32623,-5.07069 -0.11215,-0.4085 -0.57695,-1.7598 -1.10928,-3.03976 -0.26616,-0.63997 -0.55225,-1.27101 -0.81802,-1.77261 -0.26574,-0.50161 -0.55889,-0.88718 -0.62076,-0.93834 -0.10022,-0.0826 -0.29778,-0.16561 -0.58133,-0.2628 -0.2839,-0.0973 -0.65494,-0.21019 -0.99787,-0.50105 h -9.2e-4 c -1.01773,-0.86321 -2.31774,-1.98025 -3.67937,-3.18735 -0.63564,-0.56251 -1.19948,-1.07602 -1.85302,-1.68877 -0.23192,-0.21737 -0.45471,-0.40282 -0.68576,-0.62518 -0.0886,-0.0853 -0.16569,-0.179 -0.25412,-0.26503 -0.003,-0.003 -0.008,-0.008 -0.0102,-0.0129 -1.02969,-1.00204 -2.04015,-2.0301 -2.94719,-3.08559 v -8.7e-4 c -0.98576,-1.14719 -1.85575,-2.30714 -2.51206,-3.43675 -0.95626,-1.64586 -1.35279,-3.43593 -2.00388,-5.00473 -0.16739,-0.40343 -0.40392,-0.81836 -0.63119,-1.26713 -0.22746,-0.44914 -0.44616,-0.93317 -0.57901,-1.47737 -0.26578,-1.08889 -0.36868,-2.31049 -0.40495,-3.51954 -0.0362,-1.2094 -0.007,-2.40727 -0.007,-3.45131 0,-2.67899 0.0722,-5.24535 0.28661,-7.73804 0.13254,-1.54216 0.34587,-3.04977 0.6045,-4.54395 0.0523,-0.29718 0.11572,-0.59449 0.17408,-0.89023 0.26572,-1.37254 0.59948,-2.73387 1.00597,-4.0832 0.0351,-0.11473 0.0636,-0.23102 0.0997,-0.34556 0.97762,-3.13982 2.40366,-6.24848 4.39641,-9.39545 0.46067,-0.72745 0.89318,-1.45279 1.41908,-2.18646 -2.18218,-0.59323 -19.41774,-5.9441 -24.3956,-8.34306 -2.21352,-1.06677 -4.19724,-2.5293 -6.29588,-3.79355 -0.26232,-0.50569 -0.3298,-1.16333 -0.78783,-1.51653 -2.56671,-1.9791 -5.95006,-2.7531 -8.65595,-4.55178 -7.12968,-4.7393 -13.50236,-10.67816 -21.24882,-14.41139 -0.4693,-0.22613 -1.06557,0.12266 -1.57454,0 -2.69657,-0.64975 -5.37478,-1.36875 -8.05725,-2.07122 h -9.2e-4 c -2.47661,0.77957 -4.99465,1.65925 -7.3668,2.57227 -0.97799,0.38021 -1.86733,0.73267 -2.83697,1.13181 -0.86511,0.36192 -1.91595,0.81093 -2.7755,1.18659 -5.28232,2.33489 -10.39169,5.02967 -15.28363,8.0523 h -9.4e-4 c -4.89139,3.02232 -9.56458,6.37347 -13.9748,10.01949 h -9.5e-4 c -0.77987,0.64572 -1.64704,1.37968 -2.44595,2.07572 -1.2896,1.12302 -2.53388,2.29273 -3.77448,3.46587 -1.00482,0.96267 -1.99754,1.93789 -2.97505,2.92678 -0.0221,0.0224 -0.044,0.0447 -0.0662,0.067 6.09562,-1.48533 12.18103,-3.01053 18.268,-4.52835 6.85688,-1.73835 7.05656,-2.24458 13.9633,-3.78682 l 8.08541,2.85954 c 0.23087,0.36645 -0.44049,0.26536 1.65421,-1.46052 1.796,-1.47977 2.26944,-0.83586 2.38956,-0.42268 1.02305,1.06849 1.33918,2.02027 1.67749,2.84182 0.6291,1.52758 0.48492,2.65199 0.9109,3.5441 1.83077,3.54773 2.74522,5.62794 4.37066,9.26914 0.98678,2.64094 1.58718,5.39655 2.37748,8.09479 1.37354,4.64848 3.12712,9.18767 4.40689,13.8634 0.46419,1.66553 0.89439,3.44327 1.22181,5.19147 0.0556,0.31044 0.13348,0.77124 0.17519,0.98865 0.15656,0.99447 0.2998,2.05554 0.37711,3.00844 0.37415,4.21913 -0.1022,8.65926 -2.30555,12.39608 -1.76257,3.00964 -3.6557,5.93258 -5.67164,8.77365 -2.01587,2.84107 -4.15456,5.60025 -6.40723,8.28381 -1.48619,1.76438 -3.07754,3.53788 -4.65634,5.16241 -3.19964,3.33413 -6.75067,6.35814 -10.63544,8.93246 -0.5269,0.3535 -1.14682,0.74854 -1.63023,1.058 -2.95849,1.82844 -5.96592,3.5973 -8.72555,5.7037 -1.1124,0.77853 -2.10678,1.68415 -3.08415,2.60916 -0.97732,0.92506 -1.93754,1.86958 -2.97851,2.72661 -2.64092,2.03314 -5.65525,3.52736 -8.51555,5.24632 -0.95341,0.57298 -1.88972,1.17046 -2.78938,1.82184 -2.30028,1.70365 -4.3904,3.62954 -6.43046,5.60867 -2.04005,1.97905 -4.03007,4.01134 -6.12763,5.92847 -0.92434,0.80666 -2.10751,1.63958 -3.11078,2.48392 -2.65505,2.10664 -4.15533,5.15842 -6.01506,7.87224 -1.57965,2.26096 -2.94124,4.68225 -4.77818,6.7673 -0.0749,0.14224 -0.17589,0.20155 -0.29357,0.22927 -0.118,0.0277 -0.25348,0.0238 -0.39565,0.0424 -0.53332,-0.71168 -0.83313,-1.55025 -1.20789,-2.34299 -1.06155,-2.12076 -2.13826,-4.23855 -3.15956,-6.37922 0.94901,2.8805 2.0239,5.72081 3.17462,8.53099 0.35851,0.86179 0.69464,1.7319 1.07331,2.58566 0.44275,1.01387 0.91623,2.0146 1.38774,3.01625 1.07605,2.25635 2.17632,4.50214 3.39274,6.69127 0.35001,0.62232 0.73977,1.28816 1.12088,1.94595 0.21161,0.36512 0.40979,0.72623 0.62192,1.08035 3.54977,5.98257 7.67878,11.74401 12.25873,17.09102 v 8.7e-4 c 0.34744,0.40865 0.72509,0.82419 1.09763,1.247 0.4394,0.49841 0.87607,1.00265 1.29492,1.46955 3.92488,4.31976 8.22928,8.44252 12.78087,12.21041 1.23214,1.01461 2.57318,2.08983 3.88356,3.08671 1.62928,1.24496 3.30917,2.42628 5.00094,3.59112 0.76283,0.52148 1.53049,1.03888 2.30556,1.54336 l 9.4e-4,8.9e-4 c 0.72745,0.4774 1.47032,0.93206 2.20807,1.3946 2.26764,1.40991 4.56937,2.76853 6.92245,4.04294 2.88471,-3.03519 6.4872,-5.40298 10.34187,-7.15091 1.01632,-0.46486 1.95283,-0.8438 2.99244,-1.24474 1.08024,-0.40904 2.19086,-0.78755 3.30689,-1.13405 1.1157,-0.34635 2.23787,-0.66105 3.33823,-0.94164 4.75182,-1.19817 9.62083,-1.93964 14.51203,-2.34524 2.45062,-0.2039 4.80066,-0.31817 7.24503,-0.3646 0.37243,-0.003 0.7449,-0.009 1.11736,-0.0143 0.96016,0.59236 1.90298,1.21202 2.88105,1.77711 0.19753,0.14585 0.40971,0.25163 0.63238,0.32767 0.66776,0.22773 1.42634,0.19086 2.13033,0.18118 0.75547,-0.0708 1.63259,0.0451 2.25797,-0.44289 1.32752,-0.0537 2.66465,-0.0722 3.99613,-0.0973 2.47027,-0.0167 4.94787,-0.11771 7.41324,0.066 0.69708,0.20055 1.35493,0.50425 2.01895,0.79183 0.66368,0.28738 1.3345,0.55899 2.05493,0.69562 1.03445,0.20597 2.07672,0.46068 3.0458,0.87122 0.10367,0.0438 0.21274,0.0763 0.31446,0.12419 0.3508,0.16526 0.69021,0.35595 1.01177,0.57819 0.71759,0.64945 1.64512,1.01387 2.60029,1.19666 0.80065,0.18972 1.60754,0.2889 2.41694,0.31876 1.61797,0.0596 3.24657,-0.15687 4.84664,-0.47196 0.80037,-0.1577 1.59478,-0.34025 2.37745,-0.52562 1.16776,-0.26386 2.34082,-0.55854 3.52505,-0.77281 1.18381,-0.21416 2.37994,-0.34813 3.59116,-0.28964 0.78301,0.052 1.55847,-0.0521 2.33572,-0.10296 0.60417,0.24209 1.14304,0.63814 1.66155,1.02331 1.20261,0.85586 2.01896,2.09193 2.66757,3.36743 0.44587,0.87413 0.79404,1.77884 1.06516,2.70424 0.27115,0.92541 0.4652,1.87195 0.60105,2.82837 0.27171,1.91283 0.31235,3.86697 0.27964,5.78201 -0.0134,0.90506 -0.055,1.83906 -0.0918,2.76796 2.24478,-0.69827 4.47183,-1.44861 6.6753,-2.25801 2.05863,-0.76888 4.0999,-1.5812 6.11252,-2.45594 0.18709,-0.081 0.3808,-0.1471 0.56739,-0.22924 3.21522,-1.41305 6.49844,-3.02848 9.57491,-4.71061 11.39215,-6.20927 21.83694,-14.23076 30.7077,-23.55858 0.22569,-0.23664 0.43191,-0.48974 0.6556,-0.72807 -1.40651,-0.49706 -2.78373,-1.0144 -4.24096,-1.36554 -0.71979,-0.17346 -1.56299,0.31983 -2.22662,0 -1.04931,-0.50568 -0.36171,-2.34887 -1.11275,-3.21756 -4.99779,-5.78055 -11.12976,-9.10941 -11.12976,-17.1637 0,-3.21822 -1.49319,-6.77647 0,-9.65495 0.16593,-0.31981 0.94801,0.31981 1.11393,0 0.33181,-0.63966 -0.33181,-1.5065 0,-2.14618 0.85381,-1.64591 27.91719,0.37678 30.04979,-1.07251 5.18091,-3.5208 9.84459,-7.69873 14.76734,-11.54833 v -8.9e-4 c 0.57312,-1.79699 1.09841,-3.60702 1.58961,-5.42637 0.16232,-0.6294 0.3685,-1.39849 0.53609,-2.08574 1.89092,-7.62866 3.01602,-15.43176 3.38229,-23.26669 0.0252,-0.68511 0.0646,-1.5155 0.0812,-2.25688 0.10669,-3.74661 0.0326,-7.49656 -0.20424,-11.23744 -0.0652,-0.93703 -0.14307,-1.99954 -0.23206,-2.98272 -0.14173,-1.55579 -0.30535,-3.06126 -0.50706,-4.62895 -0.19067,-1.46611 -0.39753,-2.87338 -0.64397,-4.34936 -0.24915,-1.49307 -0.51121,-2.91092 -0.81918,-4.40641 -1.94264,-9.46247 -5.05185,-18.70057 -9.23607,-27.46282 -1.003,-2.08788 -2.10825,-4.25668 -3.2547,-6.3244 -2.80255,-5.07208 -6.03444,-10.05467 -9.58421,-14.72789 -0.92337,-1.21825 -1.9346,-2.40186 -2.91355,-3.59781 0.0364,0.14032 0.065,0.31728 0.11597,0.43169 z m -84.17379,50.23292 c 0.1457,-0.0262 0.27649,-0.0257 0.34922,0.0792 0.42446,0.61364 0.67697,1.27544 0.84938,1.9583 0.42673,1.68844 0.20523,3.54201 -0.27734,5.3805 -0.6774,2.58173 -1.80741,5.11913 -2.14538,7.07372 -0.40755,2.35688 -0.53308,4.51154 -0.98745,6.78184 -0.15144,0.75675 -0.33991,1.52525 -0.58713,2.31949 -0.37697,1.21089 -0.70485,2.02817 -0.99899,2.6606 -0.29408,0.63211 -0.5554,1.08203 -0.79713,1.55791 -0.24172,0.47593 -0.4656,0.98031 -0.68576,1.72342 -0.2202,0.74347 -0.4373,1.72742 -0.66602,3.16054 -0.11526,0.72377 -0.0668,2.39302 -0.0134,4.08878 0.0529,1.69581 0.10982,3.42145 0.0134,4.25542 v 8.8e-4 c -0.0764,0.66299 -0.18529,1.22665 -0.3249,1.73459 -0.13977,0.50853 -0.31007,0.96337 -0.50939,1.40807 -0.39851,0.88931 -0.91204,1.74249 -1.52582,2.92564 -0.002,0.021 -0.002,0.0484 -0.007,0.0693 -0.1324,1.04664 -0.18986,2.27575 -0.22277,3.5788 -0.009,0.36873 -0.019,0.73778 -0.0231,1.12175 -0.0135,1.19152 -0.0135,2.42543 -0.002,3.71747 0.009,1.34635 0.007,2.65178 9.4e-4,4.03061 -0.002,0.70627 -0.0199,1.38671 -0.0359,2.08578 -0.0177,0.77877 -0.0653,1.49639 -0.10669,2.2524 -0.0339,0.61742 -0.0339,1.26988 -0.0883,1.86322 -0.0291,0.31776 -0.087,0.59796 -0.123,0.90701 -2.9e-4,0.002 -6.1e-4,0.003 -9.5e-4,0.005 -0.0603,0.51588 -0.1223,1.02501 -0.2042,1.51207 -0.0447,0.26586 -0.0872,0.5336 -0.13927,0.78958 -0.16806,0.82875 -0.36358,1.61967 -0.61846,2.32398 -9.3e-4,0.003 -0.002,0.009 -0.002,0.0141 -0.002,0.005 -0.007,0.0129 -0.009,0.019 -0.23022,0.62914 -0.54007,1.22155 -0.87953,1.80059 -0.11858,0.20198 -0.24509,0.40149 -0.37246,0.59945 -0.25324,0.39372 -0.51401,0.78469 -0.789,1.16868 -0.46217,0.64508 -0.93184,1.28742 -1.38772,1.93705 -0.0363,0.052 -0.0754,0.1023 -0.1114,0.15434 v 8.7e-4 c -0.42787,0.61735 -0.82989,1.24639 -1.17193,1.90571 -0.0165,0.0306 -0.0217,0.0503 -0.0373,0.0805 -0.24237,0.47241 -0.38541,0.83899 -0.54997,1.22799 -0.82132,1.94098 -0.86984,3.01156 -1.23109,4.16708 -0.14636,0.48009 -0.35728,0.98821 -0.72522,1.59368 -5.8e-4,8.7e-4 -0.002,0.002 -0.002,0.003 -0.0425,0.0695 -0.11352,0.16051 -0.16017,0.23264 -0.18682,0.29011 -0.36622,0.57432 -0.6324,0.91931 -0.3689,0.47814 -0.82255,1.0163 -1.38424,1.63505 -0.15723,0.17316 -0.33276,0.31809 -0.52332,0.43952 -0.57182,0.36427 -1.27719,0.52058 -2.02241,0.62069 -0.99297,0.13328 -2.05823,0.1666 -2.96343,0.45742 -1.31443,0.42232 -2.54693,0.7445 -3.75244,1.02557 -0.28638,0.0667 -0.57567,0.13138 -0.8575,0.19122 -0.28927,0.0613 -0.59088,0.1413 -0.87604,0.19571 -0.46235,0.088 -0.90252,0.12563 -1.35639,0.19687 -0.62364,0.098 -1.25871,0.20156 -1.87277,0.27172 -0.46754,0.0534 -0.94395,0.10024 -1.40975,0.13989 -0.3324,0.0282 -0.68006,0.0563 -1.01297,0.0783 -0.4689,0.0309 -0.95084,0.0623 -1.42371,0.0829 -0.4348,0.0186 -0.92135,0.0286 -1.3622,0.0403 -0.57796,0.0157 -1.1399,0.0443 -1.73351,0.0503 -1.75725,0.0177 -3.59499,0.002 -5.5904,0.002 -3.67976,0 -7.55688,0.21971 -11.42792,0.32992 -1.93551,0.0552 -3.86962,0.0826 -5.77722,0.0413 -1.90764,-0.0413 -3.78891,-0.15088 -5.61824,-0.37132 -0.41158,-0.0494 -0.80499,-0.17645 -1.19395,-0.32208 -0.38885,-0.14554 -0.77282,-0.31084 -1.16612,-0.43728 h -9.4e-4 c -0.13116,-0.12641 -0.23908,-0.28994 -0.35855,-0.43503 -0.1194,-0.14509 -0.25047,-0.27186 -0.42813,-0.32323 -1.1583,-0.33492 -2.33725,-0.59185 -3.52271,-0.82647 -1.18553,-0.2345 -2.37743,-0.44583 -3.55986,-0.69005 -0.83685,-0.17286 -2.47323,-0.42249 -4.06574,-0.78847 -0.70417,-0.16181 -1.36996,-0.35509 -1.98413,-0.56588 -0.0821,-0.0281 -0.18677,-0.046 -0.26573,-0.0751 -0.33459,-0.12302 -0.64053,-0.25514 -0.90387,-0.39592 -0.26302,-0.14066 -0.4841,-0.29116 -0.64977,-0.45069 h -9.2e-4 c -0.13912,-0.13407 -0.20832,-0.29494 -0.23439,-0.47418 -0.0257,-0.17871 -0.008,-0.37767 0.0267,-0.58045 0.0696,-0.40711 0.20768,-0.84199 0.20768,-1.22126 0,-1.86254 0.12247,-3.39949 0.56159,-4.71172 0.0474,-0.14161 0.12368,-0.26501 0.1787,-0.40149 0.0558,-0.13833 0.118,-0.27832 0.18215,-0.41156 0.26301,-0.54644 0.57293,-1.06735 0.99787,-1.54115 0.31592,-0.35221 0.68116,-0.68684 1.10346,-1.00763 0.14421,-0.10951 0.33532,-0.21003 0.49313,-0.3165 0.14259,-0.0961 0.29506,-0.19361 0.44907,-0.28744 0.67285,-0.40984 1.41627,-0.80697 2.32992,-1.18434 2.36879,-0.97849 4.89945,-1.62976 7.3436,-2.46938 1.22207,-0.41981 2.42286,-0.88674 3.57026,-1.46507 1.14742,-0.57832 2.24199,-1.26819 3.2524,-2.13388 0.16769,-0.14366 1.43831,-3.31599 2.71976,-6.57267 v -8.8e-4 c 1.28164,-3.25718 2.57447,-6.59862 2.78823,-7.07932 1.01776,-2.28892 2.22045,-4.50229 3.14792,-6.82657 0.12136,-0.30418 0.13782,-0.64915 0.1787,-0.9853 0.0134,-0.12228 0.0519,-0.23479 0.065,-0.35677 0.008,-0.0798 0.0335,-0.15432 0.043,-0.23371 v -8.9e-4 c 0.0639,-0.53514 0.16349,-1.05022 0.50127,-1.45724 0.1199,-0.14429 0.28958,-0.2191 0.47573,-0.27177 h 9.3e-4 c 0.0148,-0.003 0.0222,-0.0185 0.0369,-0.0224 0.0479,-0.0129 0.10613,-0.0119 0.15657,-0.02 0.35795,-0.0616 0.75714,-0.0676 1.10576,-0.14209 0.23203,-0.0494 0.44056,-0.13061 0.58365,-0.3031 0.84359,-1.01636 1.42295,-2.20202 1.99342,-3.39424 0.45992,-0.96159 0.9479,-1.9053 1.53162,-2.78924 0.14008,-0.2121 0.25397,-0.44044 0.41074,-0.64195 v -8.8e-4 c 0.3935,-0.50569 0.87497,-0.92463 1.40282,-1.29845 0.52761,-0.3736 1.1019,-0.70251 1.6813,-1.02664 0.57913,-0.32398 1.16534,-0.64415 1.71376,-1.00097 0.54869,-0.35703 1.0625,-0.75239 1.49799,-1.22461 1.74271,-1.88968 2.48926,-2.96576 2.83582,-3.62911 0.0497,-0.0955 0.085,-0.17355 0.11834,-0.25164 0.0747,-0.17618 0.12928,-0.32715 0.14849,-0.43283 0.0225,-0.15866 0.0371,-0.32722 0.0628,-0.39367 0.0982,-0.25529 0.84633,-0.23731 7.06516,-3.0677 2.36093,-0.69536 4.7022,-1.45591 7.08254,-2.08688 0.10164,-0.0269 0.22086,0.008 0.3365,0.0346 0.0134,0.002 0.026,3e-4 0.0396,0.002 0.0148,0.002 0.0283,8.8e-4 0.0429,0.003 h 9.4e-4 c 0.14138,0.0306 0.27419,0.0467 0.36664,-0.0424 0.10703,-0.10307 0.16567,-0.19508 0.1903,-0.2796 0.0243,-0.084 0.0146,-0.16197 -0.0135,-0.2315 -5.9e-4,-0.002 -0.002,-0.002 -0.002,-0.005 -0.0872,-0.20652 -0.33843,-0.35733 -0.36899,-0.50549 v -8.8e-4 l 9.4e-4,-8.9e-4 c -0.0102,-0.057 0.0552,-0.11722 0.1335,-0.17669 0.12544,-0.0948 0.34834,-0.19495 0.84819,-0.3154 0.19048,-0.046 0.39476,-0.0403 0.60219,-0.0142 0.41538,0.054 0.84921,0.19397 1.2311,0.18006 0.19027,-0.008 0.37005,-0.0534 0.52678,-0.16665 0.17404,-0.12575 0.28212,-0.29546 0.35854,-0.48647 0.21497,-0.53726 0.15608,-1.26062 0.42931,-1.7883 v -8.8e-4 c 0.59047,-1.13825 1.38945,-2.48247 2.23129,-3.81814 0.84184,-1.33567 1.72653,-2.66282 2.49002,-3.7667 0.55339,-0.80007 0.8735,-1.13272 1.12551,-1.31631 0.0209,-0.0157 0.0733,-0.0976 0.0928,-0.1095 0.12857,-0.0799 0.23082,-0.10144 0.32719,-0.094 0.19153,0.0157 0.35898,0.14365 0.63818,0.14648 0.14009,8.9e-4 0.31108,-0.0301 0.52678,-0.122 0.21667,-0.0925 0.48089,-0.24701 0.80989,-0.49322 0.32922,-0.24645 0.72449,-0.58533 1.20209,-1.04568 0.90644,-0.87368 1.31524,-1.37496 1.56409,-1.74691 0.0834,-0.12524 0.13592,-0.22395 0.1752,-0.31314 v -9e-4 c 0.0863,-0.19975 0.15394,-0.38557 0.14736,-0.49208 -0.002,-0.0463 0.0151,-0.11145 0.0211,-0.15769 0.0306,-0.25243 0.28535,-0.58176 2.02707,-1.84084 1.33934,-0.96819 2.23034,-1.83665 3.08179,-2.56666 0.14899,-0.12758 0.30995,-0.2683 0.45832,-0.38584 0.0811,-0.0642 0.16857,-0.12808 0.25063,-0.189 0.30838,-0.22888 0.62823,-0.44444 0.97235,-0.62294 0.009,-0.003 0.0186,-0.0141 0.029,-0.0192 0.002,-8.7e-4 0.007,-0.002 0.008,-0.002 0.4147,-0.21142 0.89711,-0.366 1.4237,-0.49319 0.13615,-0.0329 0.2831,-0.064 0.42932,-0.0905 0.58182,-0.106 1.21789,-0.18009 2.00386,-0.18009 0.13118,0 0.29175,-0.0532 0.43743,-0.0792 z" style="fill:#3a86ff;fill-opacity:0.858824;stroke:#2d4e6f;stroke-width:3.71843;stroke-linejoin:round;stroke-dasharray:none;stroke-opacity:0.858824" id="path66"/>
        <path d="m 328.07874,187.45591 c -0.37293,0.31067 -0.738,0.63079 -1.13245,0.91595 -3.9249,2.83727 -8.17206,5.2604 -12.23321,7.91585 0.61526,0.0521 1.21284,0.0899 1.82983,0.15994 1.64609,0.18665 3.19964,0.58311 4.72364,0.75938 1.31563,0.15214 2.6744,0.14507 4.05995,0.15104 1.38591,0.005 2.79983,0.0247 4.22238,0.23039 1.4583,0.21085 7.24107,1.74871 8.78936,2.30832 0.95197,0.34408 1.66434,0.88705 2.36007,1.13851 -0.11038,-0.0397 -0.0904,-0.014 0.0441,-0.0369 0,0 9.2e-4,-8.8e-4 9.2e-4,-8.8e-4 0.0726,-0.0129 0.18375,-0.0401 0.32141,-0.0425 0.13829,-0.002 0.3047,0.0199 0.48385,0.10622 0.24062,0.11604 0.43565,0.26403 0.6022,0.41937 0.16672,0.15562 0.30554,0.31899 0.42932,0.46863 0.24758,0.29923 0.44997,0.55034 0.64165,0.68889 0.67995,0.49154 1.7492,0.9346 2.81609,1.4539 0.11038,0.0536 0.21329,0.12653 0.32373,0.1823 -0.48541,-0.54642 -0.95873,-1.09162 -1.44809,-1.6194 -1.96197,-2.13107 -4.02628,-4.17199 -6.13921,-6.16449 -2.12879,-2.00746 -4.30713,-3.96598 -6.57781,-5.82338 -1.34617,-1.10112 -2.7251,-2.16514 -4.11797,-3.21088 z" style="fill:#2d96b2;stroke:#2d4e6f;stroke-width:3.71843;stroke-linejoin:round;stroke-dasharray:none;stroke-opacity:0.858824" id="path71"/>
        <path d="m 281.22179,403.3952 c 2.92018,-0.69776 5.81612,-1.49003 8.68031,-2.38101 0.0366,-0.92894 0.0789,-1.86293 0.0918,-2.76798 0.0652,-3.83003 -0.16232,-7.81816 -1.94585,-11.31461 -0.64864,-1.27549 -1.46498,-2.5116 -2.66761,-3.36743 -0.51848,-0.38519 -1.05737,-0.78122 -1.66155,-1.02331 -0.77721,0.0508 -1.55268,0.15482 -2.3357,0.10296 -2.42324,-0.11699 -4.78068,0.53478 -7.11622,1.06245 -3.13071,0.74158 -6.43844,1.43771 -9.64103,0.67883 -0.95518,-0.18279 -1.8827,-0.54719 -2.60026,-1.19663 -0.64314,-0.44452 -1.35418,-0.76119 -2.09552,-1.00543 -0.74136,-0.24426 -1.51308,-0.41611 -2.27654,-0.56813 -1.44157,-0.27335 -2.67973,-1.08634 -4.07388,-1.48744 -2.46534,-0.18366 -4.94294,-0.0829 -7.41322,-0.0661 -1.3315,0.0251 -2.66863,0.0436 -3.99613,0.0973 -0.62539,0.48804 -1.50252,0.37203 -2.25797,0.44289 -0.93917,0.0129 -1.97266,0.0745 -2.76271,-0.50885 -0.97809,-0.5651 -1.92091,-1.18476 -2.88108,-1.77712 -0.37243,0.003 -0.7449,0.009 -1.11737,0.0143 -2.44437,0.0465 -4.7944,0.16069 -7.245,0.36459 -4.89121,0.40562 -9.76021,1.14708 -14.51202,2.34524 -2.20148,0.56139 -4.48466,1.25762 -6.64515,2.07569 -1.0396,0.40095 -1.97609,0.77988 -2.99246,1.24476 -3.85462,1.74791 -7.45715,4.11568 -10.34184,7.15089 1.29337,0.70049 2.59974,1.3783 3.91258,2.04328 1.69499,0.84274 3.39159,1.68365 5.12507,2.45034 0,0 9.5e-4,0 9.5e-4,0 0.85974,0.37579 1.90897,0.82454 2.77434,1.1866 0,0 9.1e-4,0 9.1e-4,0 0.97007,0.39933 1.85753,0.75147 2.83581,1.1318 0,0 9.4e-4,0 9.4e-4,0 0.96818,0.37085 2.05724,0.77804 3.08062,1.14076 2.2208,0.79011 4.48641,1.52154 6.71124,2.17746 2.92067,0.85743 5.91903,1.62119 8.85552,2.2569 1.86471,0.40542 3.7405,0.76822 5.62289,1.08815 1.88203,0.31988 3.77179,0.59707 5.66697,0.83432 0,0 9.4e-4,0 9.4e-4,0 0.98157,0.12059 2.09442,0.24414 3.1282,0.35006 0,0 9.4e-4,0 9.4e-4,0 3.18275,0.31512 6.37779,0.50904 9.57609,0.59274 0,0 9.2e-4,0 9.2e-4,0 0.97201,0.0195 2.07482,0.0368 3.09686,0.0381 2.66292,0.002 5.25424,-0.0754 7.91102,-0.2315 0,0 9.5e-4,0 9.5e-4,0 2.33938,-0.14349 4.78425,-0.35315 7.15332,-0.63186 1.61981,-0.18565 3.35268,-0.42281 4.96499,-0.67662 2.24975,-0.35042 4.48204,-0.79801 6.70776,-1.26938 0.76648,-0.1654 1.53556,-0.31896 2.29861,-0.49879 0.12652,-0.0293 0.25061,-0.0677 0.37709,-0.0974 z" style="fill:#e3dbdb;stroke:#2d4e6f;stroke-width:3.71843;stroke-dasharray:none;stroke-opacity:0.858824" id="path61"/>
        <path d="m 281.22179,403.3952 c 2.92018,-0.69776 5.81612,-1.49003 8.68031,-2.38101 0.0366,-0.92894 0.0789,-1.86293 0.0918,-2.76798 0.0652,-3.83003 -0.16232,-7.81816 -1.94585,-11.31461 -0.48649,-0.95661 -1.06713,-1.89101 -1.83449,-2.65949 -0.25577,-0.25617 -0.53244,-0.49399 -0.83312,-0.70794 -0.51848,-0.38519 -1.05737,-0.78122 -1.66155,-1.02331 -0.77721,0.0508 -1.55268,0.15482 -2.3357,0.10296 -1.21125,-0.0586 -2.40733,0.0754 -3.59118,0.28967 -1.18419,0.21424 -2.35727,0.50894 -3.52504,0.77278 -0.78266,0.18539 -1.57708,0.36793 -2.37746,0.52563 -1.60005,0.31521 -3.22864,0.53154 -4.84663,0.47197 -0.80938,-0.03 -1.61628,-0.129 -2.41694,-0.31877 -0.95518,-0.18279 -1.8827,-0.54719 -2.60026,-1.19663 -0.32113,-0.22197 -0.66024,-0.41177 -1.01063,-0.57709 0,0 0,-8.7e-4 0,-8.7e-4 0,0 -9.3e-4,0 -9.3e-4,0 -0.35054,-0.16507 -0.71342,-0.30521 -1.08375,-0.42723 -0.74135,-0.24426 -1.51304,-0.41612 -2.27655,-0.56815 -0.7204,-0.13657 -1.39125,-0.40823 -2.0549,-0.69562 -0.66401,-0.28755 -1.32189,-0.59127 -2.01895,-0.7918 -2.46535,-0.18366 -4.94295,-0.0828 -7.41322,-0.0661 -1.33152,0.0251 -2.66864,0.0436 -3.99613,0.0974 -0.31271,0.244 -0.68839,0.33716 -1.08025,0.37801 -0.39192,0.0407 -0.8,0.0293 -1.17774,0.0649 -0.65171,0.009 -1.344,0.0282 -1.97369,-0.14759 -0.0509,-0.0143 -0.10668,-0.0165 -0.15672,-0.0337 -0.22267,-0.076 -0.43488,-0.18189 -0.63237,-0.32768 -0.97805,-0.56509 -1.92089,-1.18475 -2.88106,-1.77708 -0.37248,0.003 -0.74491,0.009 -1.11737,0.0143 -2.44438,0.0465 -4.79441,0.1607 -7.24502,0.36457 -4.89121,0.40562 -9.76023,1.14708 -14.51205,2.34524 -1.10037,0.28062 -2.22252,0.59532 -3.33821,0.94167 -1.11604,0.34649 -2.22666,0.72499 -3.30688,1.13403 -1.0396,0.40095 -1.97613,0.7799 -2.99246,1.24475 -0.96335,0.43686 -1.91239,0.91316 -2.83698,1.42816 -1.84943,1.0303 -3.60629,2.21898 -5.21327,3.571 -0.80389,0.67624 -1.57026,1.39272 -2.29163,2.15175 1.29336,0.70048 2.59973,1.37832 3.91258,2.04325 1.695,0.84279 3.3916,1.68368 5.1251,2.45039 h 9.3e-4 c 0.85972,0.37576 1.90893,0.82451 2.77431,1.18657 h 9.4e-4 c 0.97005,0.39931 1.85748,0.75148 2.83581,1.13181 h 9.4e-4 c 0.96817,0.37083 2.05724,0.77803 3.0806,1.14074 2.22081,0.79014 4.48643,1.52155 6.71127,2.17747 2.92066,0.85742 5.91903,1.6212 8.85551,2.25688 1.86436,0.40536 3.74088,0.76828 5.62289,1.08819 1.88202,0.31986 3.77178,0.59704 5.66697,0.83432 h 9.3e-4 c 0.98155,0.12057 2.09441,0.2441 3.12818,0.35003 h 9.5e-4 c 1.59101,0.15753 3.18683,0.28529 4.78281,0.38361 1.59641,0.0985 3.19416,0.16728 4.79327,0.20913 h 9.4e-4 c 0.972,0.0195 2.07482,0.0367 3.0969,0.0381 2.66288,0.002 5.25418,-0.0757 7.91101,-0.23153 h 9.2e-4 c 2.3394,-0.14348 4.7843,-0.35317 7.15335,-0.63186 1.61978,-0.18564 3.35266,-0.42282 4.96496,-0.67665 2.24975,-0.35039 4.48206,-0.79797 6.70778,-1.26933 0.76649,-0.16543 1.53556,-0.31895 2.29858,-0.4988 0.12667,-0.0293 0.25064,-0.0676 0.37712,-0.0973 z" style="fill:#e3dbdb;stroke:#2d4e6f;stroke-width:3.71843;stroke-dasharray:none;stroke-opacity:0.858824" id="path69"/>
        <path style="fill:#54d200;fill-opacity:1;stroke:#2d4e6f;stroke-width:3.71843;stroke-dasharray:none;stroke-opacity:0.858824;paint-order:normal" d="m 231.27532,284.49534 c -12.43761,5.66076 -2.99429,-0.072 -10.23081,7.77488 -1.74281,1.8898 -4.72189,2.52847 -6.29585,4.55123 -1.62051,2.08257 -2.24774,4.79408 -3.93491,6.82686 -0.51822,0.62435 -1.84274,0.13422 -2.36097,0.75854 -0.67566,0.81406 -0.39872,2.06112 -0.787,3.03415 -0.92747,2.32427 -2.13019,4.53794 -3.14794,6.82686 -0.42748,0.96142 -5.1734,13.36627 -5.50888,13.65373 -4.04163,3.4627 -9.42809,4.11128 -14.16572,6.06829 -5.42594,2.24135 -6.29585,4.89426 -6.29585,9.86101 0,0.75854 -0.55648,1.73925 0,2.27563 1.32578,1.27786 6.19612,1.92995 7.86983,2.2756 2.36485,0.48844 4.7663,0.84727 7.08285,1.5171 0.35534,0.10262 0.52467,0.50568 0.78699,0.75852 0.78699,0.25286 1.53781,0.65937 2.36097,0.75855 7.31723,0.8816 15.46296,0 22.82253,0 7.98173,0 13.45388,0.22868 21.24855,-2.27561 1.8118,-0.58211 4.2513,-0.13172 5.5089,-1.5171 4.49374,-4.95005 2.06913,-4.74724 4.72188,-9.86101 1.36815,-2.63735 3.7113,-4.80224 4.72191,-7.58539 2.2694,-6.24957 0.76589,-18.04217 1.57397,-24.27326 1.22754,-2.3663 2.05481,-3.41256 2.36097,-6.06829 0.19237,-1.6688 -0.23086,-6.89767 0,-8.34395 0.91555,-5.73597 1.63879,-4.25388 3.14792,-9.10248 0.98879,-3.17687 1.03058,-5.95992 1.574,-9.10248 0.67594,-3.90915 4.52136,-10.15089 1.57394,-14.41222 -0.14553,-0.21041 -0.52464,0 -0.787,0 -4.67948,0 -5.12637,1.99911 -8.65681,4.55121 -4.10683,2.96883 -0.0264,0.78393 -3.93491,4.55124 -3.82285,3.6847 -2.31125,-0.45111 -4.7219,3.03417 -1.52702,2.20772 -3.54099,5.3089 -4.72191,7.5854 -0.37098,0.71515 -0.1233,1.79588 -0.78697,2.2756 -0.62961,0.45514 -1.59746,-0.18396 -2.36095,0 -2.18352,0.52616 0.0694,0.69174 -0.78699,1.51708 -0.18551,0.17882 -0.53405,-0.067 -0.787,0 -2.38034,0.63098 -4.72188,1.39078 -7.08284,2.08614 z" id="path18"/>
        <path d="m 328.07874,187.45591 c -6.40985,-4.81241 -13.2934,-9.03765 -20.55148,-12.56048 -0.88875,-0.42961 -1.8974,-0.90683 -2.84159,-1.33646 -1.78184,-0.81097 -3.50395,-1.54438 -5.32239,-2.27477 -1.55507,-0.62518 -3.24116,-1.26026 -4.86866,-1.83526 -1.79532,-0.63692 -3.53658,-1.20383 -5.36532,-1.76366 -1.04071,-0.31438 -2.20112,-0.65416 -3.29642,-0.95288 -1.76329,-0.48408 -3.53548,-0.92748 -5.28407,-1.32972 -0.72902,-0.16614 -1.54274,-0.34445 -2.27652,-0.4977 -3.44248,-0.72116 -6.91805,-1.2963 -10.41152,-1.73347 -0.98181,-0.1206 -2.09517,-0.24407 -3.12933,-0.35006 -3.18317,-0.31519 -6.37861,-0.50903 -9.57727,-0.59274 -0.97189,-0.0196 -2.07592,-0.0378 -3.09804,-0.0392 -0.57744,-1.4e-4 -1.15487,0.005 -1.73234,0.009 0,0 -9.3e-4,0 -9.3e-4,0 -3.6037,0.0473 -7.28189,0.24132 -10.9116,0.59611 -1.50875,0.14788 -3.00089,0.31765 -4.4672,0.51443 -1.89383,0.25014 -3.78057,0.5441 -5.66001,0.88017 -1.87917,0.33618 -3.75232,0.71385 -5.61359,1.13178 -1.10616,0.25611 -2.32812,0.54108 -3.47168,0.83767 -2.22242,0.56732 -4.44623,1.19899 -6.59289,1.87664 -0.0584,0.0183 -0.11548,0.0419 -0.17407,0.0603 2.68282,0.70255 5.36146,1.42136 8.05839,2.07123 0.50901,0.12266 1.10527,-0.22616 1.57456,0 7.74644,3.73323 14.11914,9.67209 21.24882,14.41139 2.70586,1.79866 6.08924,2.57265 8.65595,4.5518 0.45804,0.35318 0.52552,1.01082 0.78784,1.51651 2.09865,1.26423 4.08236,2.72675 6.29587,3.79351 4.97787,2.39897 22.21344,7.74987 24.39559,8.34309 0.28534,-0.39802 0.64835,-0.71129 0.97815,-1.06133 0.91479,-0.97104 1.92811,-1.83358 3.02726,-2.57564 1.49562,-1.00959 3.05533,-1.90391 4.38483,-2.94129 l 0.0545,-0.0438 h 9.5e-4 l 0.0627,-0.0302 h 9.3e-4 c 1.06593,-0.51369 2.12904,-0.97298 3.12125,-1.5042 -0.11083,0.0595 -0.091,0.0774 -0.0256,-0.0129 0,0 9.4e-4,-8.8e-4 9.4e-4,-8.8e-4 0.0652,-0.0894 0.20359,-0.30729 0.52911,-0.41265 0,0 9.3e-4,-8.9e-4 9.3e-4,-8.9e-4 0.39736,-0.12758 0.82416,-0.2009 1.27401,-0.23264 1.34953,-0.0952 2.90368,0.18703 4.47069,0.52118 2.08936,0.44552 4.19854,1.0326 5.56254,1.20226 2.23115,0.27745 4.52705,0.40306 6.82032,0.5972 4.06114,-2.65548 8.30829,-5.0786 12.2332,-7.91586 0.39444,-0.28513 0.75954,-0.60527 1.13247,-0.91596 z" style="fill:#e2e3db;stroke:#2d4e6f;stroke-width:3.71843;stroke-dasharray:none;stroke-opacity:0.858824" id="path55"/>
        <path d="m 252.05613,162.18957 c -0.57744,-1.4e-4 -1.15487,0.005 -1.73234,0.009 h -9.3e-4 c -3.6037,0.0474 -7.28075,0.24132 -10.91043,0.59612 0,0 -9.3e-4,0 -9.3e-4,0 -1.50877,0.14786 -3.00088,0.31763 -4.4672,0.51444 -1.89386,0.25013 -3.78058,0.54407 -5.65999,0.88016 -1.87878,0.33609 -3.75269,0.71395 -5.61362,1.13179 -1.10616,0.25611 -2.3281,0.54106 -3.47167,0.83768 -2.22241,0.56729 -4.44621,1.19896 -6.5929,1.87661 -0.0582,0.0183 -0.11467,0.0419 -0.17287,0.0603 2.68245,0.70246 5.36067,1.42146 8.0572,2.07123 0.50901,0.12265 1.1053,-0.22615 1.57456,0 7.74643,3.73322 14.11915,9.6721 21.24883,14.41141 2.70586,1.79864 6.08925,2.57263 8.65593,4.55177 0.45806,0.35317 0.52553,1.01083 0.78785,1.51651 2.09864,1.26426 4.08233,2.72676 6.29588,3.79352 4.97788,2.39899 22.21344,7.74988 24.3956,8.34309 0.28532,-0.39805 0.64833,-0.71128 0.97813,-1.06134 0.91482,-0.97104 1.92813,-1.83358 3.02727,-2.57561 0,0 9.4e-4,-8.7e-4 9.4e-4,-8.7e-4 1.49497,-1.00908 3.0547,-1.90341 4.38366,-2.94022 l 0.0545,-0.0438 h 9.4e-4 l 0.0627,-0.0301 h 9.1e-4 c 1.06593,-0.51372 2.12904,-0.97302 3.12124,-1.50421 -0.11084,0.0595 -0.0909,0.0774 -0.0255,-0.0129 l 9.1e-4,-8.9e-4 c 0.0328,-0.0445 0.0832,-0.12164 0.16596,-0.20019 0,0 9.2e-4,0 9.2e-4,0 0.0831,-0.0787 0.19938,-0.15994 0.36203,-0.2125 l 9.5e-4,-8.7e-4 c 0.39735,-0.12759 0.82416,-0.20091 1.27401,-0.23263 1.34953,-0.0951 2.90366,0.18699 4.47068,0.52116 2.08936,0.44552 4.19857,1.03263 5.56255,1.20225 2.23115,0.2775 4.52706,0.40306 6.82033,0.59721 4.06115,-2.65548 8.30829,-5.07859 12.2332,-7.91584 0.39445,-0.28516 0.75952,-0.60531 1.13247,-0.91595 -6.40987,-4.81244 -13.29344,-9.03767 -20.55149,-12.56049 -0.88876,-0.42962 -1.89742,-0.90683 -2.8416,-1.33646 -1.78184,-0.811 -3.50397,-1.5444 -5.32237,-2.27477 -1.55478,-0.62504 -3.24152,-1.26034 -4.86866,-1.83526 -1.79536,-0.63695 -3.5366,-1.20381 -5.36532,-1.76369 -1.04072,-0.31438 -2.20112,-0.65413 -3.29644,-0.95284 -1.76329,-0.48408 -3.53549,-0.92749 -5.28406,-1.32978 -0.72903,-0.1661 -1.54275,-0.34439 -2.27654,-0.49765 -3.44247,-0.72117 -6.91803,-1.29634 -10.4115,-1.73349 -0.98181,-0.12058 -2.09519,-0.24407 -3.12936,-0.35005 -1.59121,-0.15753 -3.18661,-0.28529 -4.78281,-0.38361 -1.59659,-0.0985 -3.1951,-0.16727 -4.79445,-0.20914 -0.97152,-0.0196 -2.07622,-0.0378 -3.098,-0.0391 z" style="fill:#e2e3db;stroke:#2d4e6f;stroke-width:3.71843;stroke-dasharray:none;stroke-opacity:0.858824" id="path65"/>
      </g>
      <g id="g181" style="opacity:1;stroke-width:11.6771;stroke-dasharray:none" transform="matrix(0.15572914,0,0,0.11223989,-13.108108,1.6978023)">
        <path id="path107-8-5" style="opacity:1;fill:none;fill-opacity:0.858824;stroke:#3a86ff;stroke-width:20.3092;stroke-linejoin:round;stroke-dasharray:none;stroke-opacity:0.858824;paint-order:markers stroke fill" d="m 507.4159,328.30758 -13.97345,-78.77825 0.12425,49.46097 c 0.56074,1.15423 1.09325,2.31694 1.5661,3.4978 -0.37754,0.45675 -0.71961,1.04067 -0.99078,1.77134 -0.0725,0.19531 -0.14583,0.39214 -0.21943,0.58776 -0.13621,-0.0518 -0.26213,-0.14094 -0.40365,-0.16584 -0.58747,-1.57916 -1.25831,-3.13721 -2.01159,-4.67191 l -41.68801,4.33275 z m -15.90855,-28.29813 2.05935,-1.01915 c -5.45606,-11.23069 -14.99627,-21.16633 -27.45364,-29.06316 -19.93031,-12.63388 -47.2754,-20.18981 -77.39933,-19.77647 -30.12396,0.41313 -57.35566,8.71747 -77.10601,21.89557 -13.98099,9.32874 -24.18732,21.1694 -28.9275,34.3967 0.11262,0.0276 0.22562,0.0538 0.33844,0.0805 l 0.78134,-0.009 c 0.45202,-0.006 0.86706,0.0243 1.24555,0.0866 4.6324,-12.31576 14.319,-23.46952 27.73804,-32.42323 19.31303,-12.88642 46.18374,-21.11855 75.93959,-21.52663 29.75586,-0.40826 56.73449,7.08387 76.22354,19.43802 12.14164,7.69664 21.32139,17.2456 26.56063,27.91985 z" transform="matrix(-0.99976359,0.02471641,-0.01912739,-0.99976359,658.10574,724.40934)"/>
        <path id="path107-8" style="opacity:1;fill:none;fill-opacity:0.858824;stroke:#3a86ff;stroke-width:20.3092;stroke-linejoin:round;stroke-dasharray:none;stroke-opacity:0.858824" d="m 257.25204,116.25756 c -30.12396,0.41313 -55.98296,11.22507 -75.73331,24.40317 -13.98099,9.32874 -24.18707,21.16925 -28.92725,34.39655 0.11262,0.0276 0.22516,0.0547 0.33798,0.0814 l 0.7829,-0.009 c 0.45202,-0.006 0.86652,0.0261 1.24501,0.0884 4.6324,-12.31576 14.31858,-23.47067 27.73762,-32.42438 19.31303,-12.88642 46.18369,-21.11826 75.93954,-21.52634 29.75586,-0.40826 56.735,7.08607 76.22405,19.44022 12.81468,8.12328 22.31894,18.31018 27.38437,29.70569 l 2.2074,-0.69305 C 359.202,157.62028 349.25916,146.93111 336.0253,138.54206 316.09499,125.90818 287.37597,115.84422 257.25204,116.25756 Z m 107.19831,53.46233 c 0.19981,0.46063 0.40779,0.91908 0.59386,1.38377 -0.37754,0.45675 -0.71987,1.04148 -0.99104,1.77215 -0.0725,0.19531 -0.14599,0.39277 -0.21959,0.58839 -0.13621,-0.0518 -0.26139,-0.14254 -0.40291,-0.16744 -0.36097,-0.97033 -0.76372,-1.92997 -1.18772,-2.88382 l -42.68779,-2.02509 60.19852,20.01086 -18.3942,-76.7657 z" transform="translate(3.7426755,-1.0636209)"/>
      </g>
    </g>
  </g>
</svg>